<svg width="17" height="28" viewBox="0 0 17 28" fill="none" xmlns="http://www.w3.org/2000/svg">
<path d="M0.0976562 18.4922V9.91406C0.0976562 7.13672 0.830078 4.95117 2.29492 3.35742C3.75977 1.76367 5.82227 0.966797 8.48242 0.966797C11.1309 0.966797 13.1934 1.75781 14.6699 3.33984C16.1582 4.92188 16.9023 7.11328 16.9023 9.91406V18.4922C16.9023 21.3164 16.1465 23.5195 14.6348 25.1016C13.123 26.6719 11.0723 27.4512 8.48242 27.4395C5.81055 27.4277 3.74219 26.6367 2.27734 25.0664C0.824219 23.4961 0.0976562 21.3047 0.0976562 18.4922ZM4.89648 19.1426C4.89648 20.6191 5.18359 21.7852 5.75781 22.6406C6.34375 23.4961 7.25195 23.9238 8.48242 23.9238C9.71289 23.9238 10.6211 23.4961 11.207 22.6406C11.8047 21.7852 12.1035 20.6191 12.1035 19.1426V9.31641C12.1035 7.82812 11.8047 6.65625 11.207 5.80078C10.6211 4.94531 9.71289 4.51758 8.48242 4.51758C7.26367 4.51758 6.36133 4.94531 5.77539 5.80078C5.18945 6.65625 4.89648 7.82812 4.89648 9.31641V19.1426Z" fill="#717171"/>
</svg>
