<svg width="19" height="27" viewBox="0 0 19 27" fill="none" xmlns="http://www.w3.org/2000/svg">
<path d="M0.957031 27V23.9766L9.81641 14.0801C10.7305 13.0137 11.4746 12.0059 12.0488 11.0566C12.6348 10.0957 12.9277 9.10547 12.9277 8.08594C12.9277 6.94922 12.6113 6.07031 11.9785 5.44922C11.3574 4.82813 10.5137 4.51758 9.44727 4.51758C8.35742 4.51758 7.46094 4.86914 6.75781 5.57227C6.05469 6.26367 5.70312 7.41797 5.70312 9.03516V9.52734H0.921875V8.71875C0.921875 6.41016 1.71289 4.54102 3.29492 3.11133C4.88867 1.68164 6.95117 0.966797 9.48242 0.966797C12.1074 0.966797 14.1348 1.61133 15.5645 2.90039C16.9941 4.17773 17.709 5.83008 17.709 7.85742C17.709 9.48633 17.3105 10.9453 16.5137 12.2344C15.7285 13.5234 14.6914 14.8887 13.4023 16.3301L7.47852 23.168H18.3066V27H0.957031Z" fill="#717171"/>
</svg>
