<svg width="19" height="28" viewBox="0 0 19 28" fill="none" xmlns="http://www.w3.org/2000/svg">
<path d="M0.570312 20.0039V19.3711H5.24609V19.916C5.24609 21.2402 5.61523 22.2422 6.35352 22.9219C7.0918 23.6016 8.06445 23.9414 9.27148 23.9414C10.5137 23.9414 11.4922 23.6016 12.207 22.9219C12.9219 22.2305 13.2793 21.1348 13.2793 19.6348C13.2793 18.1699 12.8691 17.0859 12.0488 16.3828C11.2285 15.668 10.1152 15.3105 8.70898 15.3105H6.23047V12.1289H8.56836C9.78711 12.1289 10.7539 11.8008 11.4688 11.1445C12.1836 10.4883 12.541 9.48047 12.541 8.12109C12.541 6.87891 12.248 5.96484 11.6621 5.37891C11.0762 4.78125 10.2559 4.48242 9.20117 4.48242C8.07617 4.48242 7.21484 4.79883 6.61719 5.43164C6.03125 6.06445 5.73828 6.97266 5.73828 8.15625V8.57812H1.11523V8.10352C1.11523 5.95898 1.87109 4.23633 3.38281 2.93555C4.89453 1.62305 6.86914 0.966797 9.30664 0.966797C11.791 0.966797 13.7422 1.58203 15.1602 2.8125C16.5781 4.03125 17.2871 5.625 17.2871 7.59375C17.2871 9.03516 16.9648 10.2598 16.3203 11.2676C15.6875 12.2754 14.7441 13.0312 13.4902 13.5352V13.6055C14.8027 13.9219 15.8926 14.6133 16.7598 15.6797C17.6387 16.7461 18.0781 18.1348 18.0781 19.8457C18.0781 22.1426 17.2754 23.9824 15.6699 25.3652C14.0762 26.748 11.9316 27.4395 9.23633 27.4395C6.54102 27.4395 4.41992 26.7656 2.87305 25.418C1.33789 24.0703 0.570312 22.2656 0.570312 20.0039Z" fill="#717171"/>
</svg>
