<svg width="19" height="27" viewBox="0 0 19 27" fill="none" xmlns="http://www.w3.org/2000/svg">
<path d="M0.675781 19.127V18.5469L5.38672 18.5645V19.0566C5.38672 20.334 5.73242 21.3008 6.42383 21.957C7.12695 22.6133 8.09961 22.9414 9.3418 22.9414C10.6074 22.9414 11.5977 22.5195 12.3125 21.6758C13.0273 20.8203 13.3848 19.4961 13.3848 17.7031C13.3848 15.9219 13.0273 14.6504 12.3125 13.8887C11.5977 13.1152 10.6602 12.7285 9.5 12.7285C8.60938 12.7285 7.83008 12.9102 7.16211 13.2734C6.49414 13.6367 5.94336 14.1113 5.50977 14.6973L1.48438 13.4668L2.80273 0.40625H16.8652V4.23828L6.49414 4.18555L5.82617 10.7246C6.37695 10.3145 7.05664 9.97461 7.86523 9.70508C8.68555 9.42383 9.57617 9.2832 10.5371 9.2832C12.6699 9.2832 14.4688 9.97461 15.9336 11.3574C17.4102 12.7402 18.1484 14.7969 18.1484 17.5273C18.1484 20.3164 17.3633 22.502 15.793 24.084C14.2344 25.6543 12.0957 26.4395 9.37695 26.4395C6.66992 26.4395 4.54297 25.7832 2.99609 24.4707C1.44922 23.1465 0.675781 21.3652 0.675781 19.127Z" fill="#717171"/>
</svg>
