<svg width="19" height="27" viewBox="0 0 19 27" fill="none" xmlns="http://www.w3.org/2000/svg">
<path d="M0.816406 15.3477V14.5039C0.816406 10.0508 2.01758 6.5293 4.41992 3.93945C6.83398 1.34961 10.2734 0.0546875 14.7383 0.0546875H15.5117V3.85156H14.8086C11.8555 3.85156 9.54688 4.71289 7.88281 6.43555C6.23047 8.14648 5.4043 10.9883 5.4043 14.9609L5.50977 15.5762C5.50977 18.3887 5.90234 20.3223 6.6875 21.377C7.47266 22.4316 8.49805 22.959 9.76367 22.959C10.9941 22.959 11.9434 22.543 12.6113 21.7109C13.291 20.8672 13.6309 19.5078 13.6309 17.6328C13.6309 16.0039 13.3027 14.7617 12.6465 13.9062C11.9902 13.0391 11.0234 12.6055 9.74609 12.6055C8.5625 12.6055 7.55469 13.0391 6.72266 13.9062C5.90234 14.7734 5.49219 15.9336 5.49219 17.3867H4.17383C4.17383 14.9961 4.82422 13.0684 6.125 11.6035C7.42578 10.1387 9.10156 9.40625 11.1523 9.40625C13.3906 9.40625 15.1543 10.1445 16.4434 11.6211C17.7441 13.0977 18.3945 15.1133 18.3945 17.668C18.3945 20.3281 17.5977 22.4551 16.0039 24.0488C14.4102 25.6426 12.3242 26.4395 9.74609 26.4395C7.10938 26.4395 4.95898 25.5664 3.29492 23.8203C1.64258 22.0625 0.816406 19.2383 0.816406 15.3477Z" fill="#717171"/>
</svg>
