<svg width="19" height="28" viewBox="0 0 19 28" fill="none" xmlns="http://www.w3.org/2000/svg">
<path d="M0.710938 20.1621C0.710938 18.498 1.17383 17.1152 2.09961 16.0137C3.02539 14.9121 4.06836 14.1738 5.22852 13.7988V13.7285C4.16211 13.2715 3.27148 12.5508 2.55664 11.5664C1.8418 10.5703 1.48438 9.32812 1.48438 7.83984C1.48438 5.76562 2.20508 4.10156 3.64648 2.84766C5.08789 1.59375 7.02148 0.966797 9.44727 0.966797C11.8848 0.966797 13.8184 1.60547 15.248 2.88281C16.6895 4.14844 17.4102 5.80078 17.4102 7.83984C17.4102 9.36328 17.0527 10.6172 16.3379 11.6016C15.623 12.5859 14.7383 13.2949 13.6836 13.7285V13.7988C14.8789 14.1504 15.9277 14.8828 16.8301 15.9961C17.7324 17.0977 18.1836 18.4863 18.1836 20.1621C18.1836 22.459 17.3691 24.2461 15.7402 25.5234C14.123 26.8008 12.0254 27.4395 9.44727 27.4395C6.88086 27.4395 4.7832 26.8008 3.1543 25.5234C1.52539 24.2461 0.710938 22.459 0.710938 20.1621ZM5.49219 19.7402C5.49219 21.1113 5.83789 22.166 6.5293 22.9043C7.23242 23.6426 8.20508 24.0117 9.44727 24.0117C10.6895 24.0117 11.6562 23.6426 12.3477 22.9043C13.0391 22.1543 13.3848 21.0996 13.3848 19.7402C13.3848 18.334 13.0273 17.2676 12.3125 16.541C11.6094 15.8145 10.6543 15.4512 9.44727 15.4512C8.24023 15.4512 7.2793 15.8145 6.56445 16.541C5.84961 17.2676 5.49219 18.334 5.49219 19.7402ZM6.07227 8.33203C6.07227 9.5625 6.37695 10.5469 6.98633 11.2852C7.5957 12.0234 8.41602 12.3926 9.44727 12.3926C10.4785 12.3926 11.293 12.0234 11.8906 11.2852C12.5 10.5469 12.8047 9.5625 12.8047 8.33203C12.8047 7.11328 12.5176 6.1582 11.9434 5.4668C11.3691 4.77539 10.5371 4.42969 9.44727 4.42969C8.35742 4.42969 7.51953 4.76953 6.93359 5.44922C6.35938 6.11719 6.07227 7.07813 6.07227 8.33203Z" fill="#717171"/>
</svg>
