<svg width="19" height="28" viewBox="0 0 19 28" fill="none" xmlns="http://www.w3.org/2000/svg">
<path d="M0.640625 9.68555C0.640625 7.03711 1.4375 4.92188 3.03125 3.33984C4.625 1.75781 6.71094 0.966797 9.28906 0.966797C11.9375 0.966797 14.0879 1.8457 15.7402 3.60352C17.4043 5.34961 18.2363 8.17383 18.2363 12.0762V12.9023C18.2363 17.25 17.0293 20.7129 14.6152 23.291C12.2012 25.8574 8.76758 27.1523 4.31445 27.1758H3.52344V23.4141H4.22656C7.17969 23.4141 9.48242 22.5586 11.1348 20.8477C12.7871 19.1367 13.6133 16.3477 13.6133 12.4805L13.5254 11.8301C13.5254 9.08789 13.1387 7.17773 12.3652 6.09961C11.6035 5.02148 10.5664 4.48242 9.25391 4.48242C8.03516 4.48242 7.0918 4.89844 6.42383 5.73047C5.75586 6.55078 5.42188 7.88086 5.42188 9.7207C5.42188 11.373 5.74414 12.6152 6.38867 13.4473C7.04492 14.2793 8.01172 14.6953 9.28906 14.6953C10.4727 14.6953 11.4805 14.2734 12.3125 13.4297C13.1445 12.5859 13.5605 11.4434 13.5605 10.002H14.8086C14.8086 12.3105 14.1758 14.2031 12.9102 15.6797C11.6445 17.1562 9.96875 17.8945 7.88281 17.8945C5.65625 17.8945 3.89258 17.1621 2.5918 15.6973C1.29102 14.2324 0.640625 12.2285 0.640625 9.68555Z" fill="#717171"/>
</svg>
